<svg enable-background="new 0 0 32 32" height="32" viewBox="0 0 32 32" width="32" xmlns="http://www.w3.org/2000/svg"><path d="m25.762 19.532c-.162.393-.539.654-.965.654h-6.248l3.287 7.786c.23.54-.031 1.145-.555 1.374l-2.896 1.227c-.539.229-1.145-.032-1.375-.556l-3.123-7.394-5.104 5.104c-.196.196-.458.311-.736.311-.131 0-.278-.032-.393-.082-.392-.163-.654-.54-.654-.965v-24.601c0-.425.262-.802.654-.965.114-.049.262-.082.393-.082.278 0 .54.098.736.311l16.75 16.75c.311.294.393.752.229 1.128z" fill="#fff"/></svg>