<?xml version="1.0" encoding="utf-8"?>
<!-- Generator: Adobe Illustrator 16.0.4, SVG Export Plug-In . SVG Version: 6.00 Build 0)  -->
<!DOCTYPE svg PUBLIC "-//W3C//DTD SVG 1.1//EN" "http://www.w3.org/Graphics/SVG/1.1/DTD/svg11.dtd">
<svg version="1.1" id="Layer_1" xmlns="http://www.w3.org/2000/svg" xmlns:xlink="http://www.w3.org/1999/xlink" x="0px" y="0px"
	 width="32px" height="32px" viewBox="0 0 32 32" enable-background="new 0 0 32 32" xml:space="preserve">
<g>
	<path fill="#FFFFFF" d="M4.565,2.609h22.89l0.217,6.879h-0.969c-0.475-2.162-1.078-3.568-1.809-4.221
		c-0.732-0.651-2.27-0.978-4.615-0.978h-2.254v20.715c0,1.56,0.244,2.526,0.732,2.898c0.486,0.373,1.555,0.619,3.201,0.738v0.75
		h-11.8v-0.75c1.713-0.133,2.78-0.414,3.202-0.848c0.421-0.431,0.632-1.52,0.632-3.264V4.289h-2.272
		c-2.24,0-3.766,0.323-4.575,0.968c-0.811,0.646-1.42,2.056-1.829,4.231H4.328L4.565,2.609z"/>
</g>
</svg>
