<svg enable-background="new 0 0 32 32" height="32" viewBox="0 0 32 32" width="32" xmlns="http://www.w3.org/2000/svg"><path d="m18.25 9.437v-7.437h-10.938c-.728 0-1.312.584-1.312 1.312v25.375c0 .727.584 1.313 1.312 1.313h18.375c.727 0 1.313-.586 1.313-1.313v-17.938h-7.438c-.722 0-1.312-.591-1.312-1.312zm4.18 11.558-5.271 5.234c-.365.362-.951.362-1.314 0l-5.273-5.234c-.556-.551-.167-1.496.615-1.496h3.564v-4.375c0-.483.391-.875.875-.875h1.75c.482 0 .875.392.875.875v4.375h3.564c.779 0 1.169.945.615 1.496zm4.187-13.255-5.354-5.358c-.245-.247-.579-.382-.929-.382h-.334v6.999h7v-.334c0-.344-.137-.677-.383-.925z" fill="#fff"/></svg>