<svg enable-background="new 0 0 32 32" height="32" viewBox="0 0 32 32" width="32" xmlns="http://www.w3.org/2000/svg"><path d="m16 1c-8.284 0-15 6.716-15 15s6.716 15 15 15 15-6.716 15-15-6.716-15-15-15zm0 2.903c6.686 0 12.097 5.41 12.097 12.097 0 6.686-5.41 12.097-12.097 12.097-6.686 0-12.097-5.41-12.097-12.097 0-6.686 5.41-12.097 12.097-12.097m8.48 7.879-1.363-1.374c-.282-.284-.742-.286-1.027-.004l-8.549 8.48-3.616-3.646c-.282-.284-.742-.286-1.026-.005l-1.374 1.364c-.285.282-.287.741-.005 1.026l5.491 5.535c.282.284.742.286 1.026.004l10.439-10.355c.285-.281.287-.741.004-1.025z" fill="#fff"/></svg>