<svg enable-background="new 0 0 32 32" height="32" viewBox="0 0 32 32" width="32" xmlns="http://www.w3.org/2000/svg"><path d="m12.698 1c1.385 0 2.568 1.209 2.568 2.625v5.85c.999-.957 2.917-1.074 4.157.37 1.338-.837 3.106-.125 3.652.963 2.878-.526 4.175 1.287 4.175 4.254 0 .161-.013.778-.012.938.01 3.631-1.819 4.505-2.244 7.251-.105.683-1.301.749-1.994.749h-10 1c-1.077-.001-2.548-.185-3.015-1.23-.761-1.691-2.873-5.59-4.53-6.301-1.067-.457-1.705-1.252-1.705-2.344-.001-2.005 2.057-3.384 3.92-2.585.49.21.978.487 1.461.83v-8.745c0-1.374 1.203-2.625 2.567-2.625zm.302 24h11c.776 0 1.375 1.005 1.375 1.781v2.812c0 .776-.63 1.406-1.406 1.406h-11.25c-.777 0-1.406-.63-1.406-1.406v-2.812c-.001-.776.91-1.781 1.687-1.781zm9.062 1.016c-.924 0-1.672.748-1.672 1.672s.748 1.672 1.672 1.672 1.672-.748 1.672-1.672-.748-1.672-1.672-1.672z" fill="#fff"/></svg>